# xmcd
#
# Track frame offsets:
#	183
#	17433
#	32973
#	43275
#	69555
#	83240
#	94738
#	109730
#	122503
#	134685
#	148883
#	164603
#	181808
#	195758
#	211590
#	224223
#
# Disc length: 3228
#
# Revision: 2
# Processed by: cddbd v1.5.1PL0 Copyright (c) Steve Scherf et al.
# Submitted via: audiograbber 1.83.01
# Normalized: r1:DSETVAR1
#
DISCID=eb0c9a10
DTITLE=Various Artist - Trucker Hit Festival CD 2/2
DYEAR=1900
DGENRE=Trucker Songs
TTITLE0=GUNTER GABRIEL - FAHRER DU BIST DEUTSCHLANDS BESTER MANN
TTITLE1=OLIVER FREYTAG - HEY DRIVER
TTITLE2=TOM ASTOR - ICH FAHR FLÜSTERTRUCK
TTITLE3=WESTERN UNION - TRUCKDRIVER BLUES
TTITLE4=FLOPHOUSE STRING BAND - HEY DIESEL
TTITLE5=TOM ASTOR - EINMAL ÜBER`N HIGHWAY DONNERN
TTITLE6=INVITATIO - ES WAR EINE STÜRMISCHE NACHT
TTITLE7=TOM ASTOR - JEDEN SONNTAG NIMMT ER ABSCHIED FÜR´NE WOCHE
TTITLE8=TOM ASTOR - JEDEN MONTAG FREU`N WIR UNS AUF` S WOCHENDE
TTITLE9=INVITATION - ABENTEUER AUTOBAHN
TTITLE10=NASHVILLE MUSIC COMPANY - WIEDER ALLEINE
TTITLE11=TOM ASTOR - SIE IST GERNE SEINE FRAU
TTITLE12=TENNESSEE ERNEST G. - DIE KLEINE LINDA
TTITLE13=MICHAEL DEE - ICH STEH` AUF COUNTRY MUSIC
TTITLE14=TOM ASTOR - GUTE NACHT MEIN SOHN
TTITLE15=ANN SILVER - ACHTZEHN RÄDER
EXTD=
EXTT0=
EXTT1=
EXTT2=
EXTT3=
EXTT4=
EXTT5=
EXTT6=
EXTT7=
EXTT8=
EXTT9=
EXTT10=
EXTT11=
EXTT12=
EXTT13=
EXTT14=
EXTT15=
PLAYORDER=
